{"accessors":[{"bufferView":2,"componentType":5126,"count":15763,"max":[0.84514319896698,0.6720460057258606,-7.8036723136901855],"min":[-0.8125394582748413,-1.0352118015289307,-9.500288009643555],"type":"VEC3","byteOffset":0},{"bufferView":2,"byteOffset":189156,"componentType":5126,"count":15763,"max":[0.9997429251670837,0.9990267157554626,0.9999710917472839],"min":[-0.9994220733642578,-0.9999324083328247,-0.9999517202377319],"type":"VEC3"},{"bufferView":3,"componentType":5126,"count":15763,"max":[0.9993304014205933,0.9886771440505981,0.9588125348091125,1],"min":[-0.7011308073997498,-0.9985085725784302,-0.9999219179153442,1],"type":"VEC4","byteOffset":0},{"bufferView":1,"componentType":5126,"count":15763,"max":[0.9882293939590454,0.9999036192893982],"min":[0.00004179414827376604,0.00011438876390457153],"type":"VEC2","byteOffset":0},{"bufferView":0,"componentType":5125,"count":90000,"max":[15762],"min":[0],"type":"SCALAR","byteOffset":0}],"asset":{"extras":{"author":"Smallpoly (https://sketchfab.com/smallpoly)","license":"CC-BY-4.0 (http://creativecommons.org/licenses/by/4.0/)","source":"https://sketchfab.com/models/2ad8fa7c276b43e1a3d3cfa130d96dc9","title":"Peach"},"generator":"Sketchfab-3.23.4","version":"2.0"},"bufferViews":[{"buffer":0,"byteLength":360000,"byteOffset":0,"name":"floatBufferViews","target":34963},{"buffer":0,"byteLength":126104,"byteOffset":360000,"byteStride":8,"name":"floatBufferViews","target":34962},{"buffer":0,"byteLength":378312,"byteOffset":486104,"byteStride":12,"name":"floatBufferViews","target":34962},{"buffer":0,"byteLength":252208,"byteOffset":864416,"byteStride":16,"name":"floatBufferViews","target":34962},{"buffer":0,"byteOffset":1116624,"byteLength":19374},{"buffer":0,"byteOffset":1136000,"byteLength":177721},{"buffer":0,"byteOffset":1313724,"byteLength":104947}],"buffers":[{"byteLength":1418672,"uri":"data:application/octet-stream;base64,"}],"images":[{"bufferView":4,"mimeType":"image/png"},{"bufferView":5,"mimeType":"image/png"},{"bufferView":6,"mimeType":"image/jpeg"}],"materials":[{"doubleSided":true,"emissiveFactor":[0,0,0],"name":"material0","normalTexture":{"index":1,"scale":1,"texCoord":0},"occlusionTexture":{"index":0,"strength":1,"texCoord":0},"pbrMetallicRoughness":{"baseColorFactor":[1,1,1,1],"baseColorTexture":{"index":2,"texCoord":0},"metallicFactor":0,"roughnessFactor":0.6908346036999999},"alphaMode":"OPAQUE"}],"meshes":[{"name":"Model_material0_0","primitives":[{"attributes":{"NORMAL":1,"POSITION":0,"TANGENT":2,"TEXCOORD_0":3},"indices":4,"material":0,"mode":4}]}],"nodes":[{"children":[1],"name":"RootNode (gltf orientation matrix)","rotation":[-0.7071067811865475,0,0,0.7071067811865476],"translation":[0,0,0],"scale":[1,1,1]},{"children":[2],"matrix":[0.9958857297897339,-0.0027307490818202496,-0.09057678282260895,0,0.06976473331451416,0.6610062122344971,0.747130274772644,0,0.05783159285783768,-0.7503754496574402,0.6584771871566772,0,-0.5129587650299072,6.553833961486816,2.8206615447998047,1],"name":"RootNode (model correction matrix)"},{"children":[3],"matrix":[1,0,0,0,0,-1,0,0,0,0,-1,0,0,0,0,1],"name":"53df3f7cf3b5402685abfe8531613998.fbx"},{"children":[4],"name":"RootNode"},{"children":[5],"name":"Model"},{"mesh":0,"name":"Model_material0_0"}],"samplers":[{"magFilter":9729,"minFilter":9987,"wrapS":10497,"wrapT":10497}],"scene":0,"scenes":[{"name":"OSG_Scene","nodes":[0]}],"textures":[{"sampler":0,"source":0},{"sampler":0,"source":1},{"sampler":0,"source":2}]}
